<?xml version="1.0" encoding="utf-8"?>
<!-- Generator: Adobe Illustrator 19.2.1, SVG Export Plug-In . SVG Version: 6.00 Build 0)  -->
<svg version="1.1" id="layer" xmlns="http://www.w3.org/2000/svg" xmlns:xlink="http://www.w3.org/1999/xlink" x="0px" y="0px"
	 viewBox="0 0 652 652" style="enable-background:new 0 0 652 652;" xml:space="preserve">
<path d="M613.5,413.4H627v-89.7h-34.5v18.9h12.8v39.1c0,8.7-3.5,13.2-10.8,13.2c-7.2,0-10.8-4.5-10.8-13.2V270.6
	c0-8.7,3.5-13.2,10.5-13.2c7,0,10.5,4.5,10.5,13.2v26.7h21.7v-25.9c0-20.9-11.5-34.1-32.2-34.1c-21.2,0-34,13.2-34,34.1V382
	c0,20.9,11.5,33.1,29.3,33.1c9,0,15.5-3.2,19.5-9.5L613.5,413.4L613.5,413.4z M499.2,270.6c0-8.7,3.5-13.2,10.5-13.2
	c7,0,10.5,4.5,10.5,13.2v111.1c0,8.7-3.5,13.2-10.5,13.2c-7,0-10.5-4.5-10.5-13.2V270.6z M534.7,405.9c6-6.2,9-14.5,9-24.9V271.3
	c0-21-12.7-34.2-34-34.2s-34,13.2-34,34.1V381c0,10.5,3,18.7,9,24.9c6,6.2,14.3,9.2,25,9.2C520.4,415.1,528.7,412.1,534.7,405.9
	L534.7,405.9L534.7,405.9z M416.6,259.1h5.2c9.8,0,14.8,6.5,14.8,19.7v94.7c0,13.2-5,19.7-14.8,19.7h-5.2V259.1z M425.1,413.4
	c20.8,0,34.8-13,34.8-39.1V278c0-26.2-14-39.1-34.8-39.1h-31.8v174.5H425.1z M360.9,413.4l18.3-174.4h-22.3l-9.5,110.2l-11.8-110.2
	h-22.7l-11.8,110.2l-8.5-110.2h-24l18.5,174.4h25.5l11.2-105.9l10.5,105.9H360.9L360.9,413.4z M257.2,413.4v-20.2H219v-64.3h24.8
	V309H219v-49.9h37.3v-20.2h-60.5v174.4H257.2L257.2,413.4z M179.2,413.4c-1.1-7.5-1.7-15.1-2-22.7l-1-36.4c-0.8-15-6-24.2-15.8-27.4
	c11.5-4.7,17.3-15.4,17.3-32.2v-20.7c0-24.7-14-35.1-35-35.1H111v174.4h23.3v-77.5h3.7c9.8,0,14.5,5.7,14.8,17.2l0.8,34.6
	c0,11.5,0.8,19.9,2.5,25.7H179.2L179.2,413.4z M134.2,258.6h7.2c8.8,0,13.3,5.5,13.3,16.2V300c0,10.7-5.2,16.7-13.5,16.7h-7
	C134.2,316.7,134.2,258.6,134.2,258.6z M50.3,331.9h7.3c8.7,0,14,5.7,14,15.9v28.4c0,11.7-4.3,17.4-13,17.4h-8.3
	C50.3,393.7,50.3,331.9,50.3,331.9z M50.3,258.6H57c9,0,13.5,5.5,13.5,16.7v22.4c0,9.7-5,15.5-13.7,15.5h-6.5
	C50.3,313.2,50.3,258.6,50.3,258.6z M60,413.4c21,0,34.8-12.5,34.8-37.1v-25.9c0-14.7-5.2-24.5-15.5-29.2
	c9.5-4.5,14.3-14.2,14.3-28.9v-18.7c0-24.7-13.7-34.6-33.8-34.6H27v174.4H60z"/>
</svg>
